<svg xmlns="http://www.w3.org/2000/svg" height="666.653" width="707.96"><path d="M707.964 666.653H0V298.672h707.964v367.981" fill="#231f20"/><path d="M203.477 73.927c-11.992 0-21.717 9.724-21.717 21.72 0 9.594 6.223 17.736 14.853 20.609 1.087.199 1.483-.472 1.483-1.048 0-.516-.019-1.881-.03-3.693-6.04 1.312-7.315-2.912-7.315-2.912-.988-2.51-2.412-3.178-2.412-3.178-1.972-1.346.149-1.32.149-1.32 2.18.154 3.327 2.239 3.327 2.239 1.937 3.319 5.084 2.36 6.321 1.804.197-1.403.759-2.36 1.379-2.903-4.823-.549-9.894-2.412-9.894-10.734 0-2.372.847-4.31 2.236-5.828-.224-.55-.969-2.758.214-5.748 0 0 1.822-.584 5.972 2.225 1.732-.481 3.59-.721 5.437-.73 1.845.009 3.703.249 5.437.73 4.147-2.81 5.967-2.225 5.967-2.225 1.185 2.99.44 5.198.217 5.748 1.392 1.518 2.232 3.456 2.232 5.828 0 8.344-5.078 10.18-9.916 10.717.779.67 1.474 1.996 1.474 4.023 0 2.902-.027 5.245-.027 5.957 0 .581.392 1.257 1.493 1.045 8.624-2.878 14.842-11.013 14.842-20.606 0-11.996-9.726-21.72-21.722-21.72M467.479 8.58c-44.463 0-80.518 36.048-80.518 80.517 0 35.575 23.071 65.756 55.063 76.403 4.024.745 5.501-1.747 5.501-3.873 0-1.92-.074-8.263-.109-14.991-22.4 4.87-27.127-9.5-27.127-9.5-3.662-9.307-8.94-11.781-8.94-11.781-7.305-4.998.551-4.895.551-4.895 8.085.567 12.343 8.299 12.343 8.299 7.181 12.308 18.836 8.749 23.43 6.692.723-5.204 2.81-8.758 5.112-10.767-17.884-2.036-36.684-8.94-36.684-39.792 0-8.79 3.146-15.973 8.296-21.612-.836-2.03-3.592-10.217.78-21.308 0 0 6.762-2.164 22.148 8.253 6.423-1.784 13.311-2.678 20.154-2.709 6.842.03 13.736.925 20.17 2.71 15.368-10.418 22.12-8.254 22.12-8.254 4.383 11.09 1.626 19.279.79 21.308 5.162 5.639 8.286 12.821 8.286 21.612 0 30.925-18.836 37.735-36.765 39.728 2.888 2.499 5.461 7.399 5.461 14.91 0 10.774-.093 19.445-.093 22.097 0 2.142 1.45 4.653 5.53 3.862 31.975-10.658 55.017-40.829 55.017-76.392 0-44.469-36.05-80.517-80.516-80.517" fill="#1b1817" fill-rule="evenodd"/><path d="M417.457 124.185c-.177.402-.806.52-1.38.246-.584-.263-.912-.808-.722-1.21.173-.41.804-.525 1.386-.252.586.264.919.815.716 1.216M420.719 127.823c-.384.356-1.135.19-1.644-.372-.527-.562-.626-1.312-.236-1.674.396-.354 1.124-.188 1.652.372.526.568.629 1.314.228 1.674M423.893 132.46c-.493.343-1.3.021-1.798-.695-.494-.716-.494-1.574.01-1.918.5-.344 1.295-.034 1.8.676.492.728.492 1.586-.012 1.937M428.243 136.94c-.442.487-1.382.356-2.07-.308-.704-.65-.9-1.57-.457-2.057.447-.488 1.392-.351 2.085.308.699.648.912 1.576.442 2.057M434.243 139.541c-.195.631-1.1.918-2.012.65-.911-.276-1.507-1.015-1.323-1.652.19-.635 1.099-.934 2.017-.647.91.275 1.507 1.008 1.318 1.65M440.832 140.024c.023.664-.75 1.215-1.708 1.227-.963.021-1.741-.516-1.752-1.17 0-.67.756-1.216 1.719-1.232.957-.018 1.741.515 1.741 1.175M446.964 138.98c.115.648-.55 1.313-1.501 1.49-.935.171-1.8-.229-1.919-.871-.116-.664.561-1.33 1.495-1.502.952-.165 1.804.224 1.925.883" fill="#1b1817"/><path d="M299.864.67v.666" fill="none" stroke="#3a7fc3" stroke-width="1.3333" stroke-linecap="round" stroke-miterlimit="10"/><path d="M299.864 4.003V182.66" fill="none" stroke="#3a7fc3" stroke-width="1.3333" stroke-linecap="round" stroke-miterlimit="10" stroke-dasharray="9.9995,19.999"/><path d="M299.864 183.993v.667" fill="none" stroke="#3a7fc3" stroke-width="1.3333" stroke-linecap="round" stroke-miterlimit="10"/><path d="M177.701 203.348c-.508-.37-1.154-.552-1.944-.552-.32 0-.634.032-.944.095-.31.065-.584.172-.824.32-.24.152-.432.35-.577.601-.143.25-.215.563-.215.936 0 .35.103.637.312.856.207.219.486.397.832.535.347.14.738.254 1.176.345.438.09.883.19 1.336.295.454.106.898.233 1.336.377.438.144.83.339 1.176.584.347.244.624.555.832.927.208.374.312.844.312 1.409 0 .608-.136 1.127-.408 1.56a3.372 3.372 0 01-1.048 1.056 4.56 4.56 0 01-1.432.592 6.945 6.945 0 01-3.392-.056 4.485 4.485 0 01-1.504-.728 3.456 3.456 0 01-1.024-1.25c-.25-.505-.376-1.105-.376-1.798h1.44c0 .48.092.893.28 1.24.187.347.432.63.736.855.304.224.658.39 1.064.497.406.107.82.159 1.248.159.342 0 .686-.031 1.032-.096.347-.063.659-.172.936-.328.278-.154.502-.364.672-.631.171-.268.256-.61.256-1.024 0-.395-.105-.715-.312-.96a2.32 2.32 0 00-.832-.6 6.151 6.151 0 00-1.176-.376l-1.336-.297a16.93 16.93 0 01-1.336-.352 4.76 4.76 0 01-1.176-.527 2.53 2.53 0 01-.832-.848c-.208-.347-.312-.781-.312-1.304 0-.576.118-1.075.352-1.497.235-.42.547-.767.936-1.04.39-.271.832-.474 1.328-.607a5.804 5.804 0 011.528-.2c.587 0 1.131.07 1.632.208.502.139.942.357 1.319.656.38.299.679.675.897 1.128.218.453.339.995.36 1.624h-1.44c-.086-.823-.381-1.416-.888-1.784M183.405 204.94v1.216h.032c.618-.94 1.508-1.408 2.671-1.408.513 0 .976.107 1.392.32.417.213.71.575.881 1.088a2.898 2.898 0 011.096-1.04 3.076 3.076 0 011.495-.368c.416 0 .793.045 1.13.135.335.092.622.233.863.425.24.192.426.44.559.744.135.304.2.67.2 1.096v6.063h-1.359v-5.423c0-.257-.022-.496-.065-.72a1.442 1.442 0 00-.239-.584 1.219 1.219 0 00-.488-.393c-.208-.096-.477-.143-.808-.143-.672 0-1.2.19-1.584.576-.384.384-.576.896-.576 1.536v5.15h-1.361v-5.422a3.61 3.61 0 00-.07-.736 1.562 1.562 0 00-.249-.584 1.167 1.167 0 00-.472-.384c-.198-.092-.452-.136-.76-.136-.394 0-.733.079-1.016.24a2.3 2.3 0 00-1.072 1.272c-.081.24-.12.44-.12.6v5.15h-1.36v-8.27h1.28M200.22 209.219a9.72 9.72 0 01-.87.144c-.305.038-.613.08-.922.129-.31.047-.587.125-.83.232a1.497 1.497 0 00-.602.456c-.155.197-.23.465-.23.807 0 .224.043.414.134.568.09.156.208.281.352.377.144.095.315.164.513.207.198.044.396.064.599.064.448 0 .832-.06 1.153-.183.319-.123.58-.277.783-.465.203-.186.353-.388.448-.607.096-.219.144-.424.144-.617v-1.391c-.17.128-.395.221-.672.279zm1.905 4.169c-.353 0-.632-.099-.841-.297-.207-.196-.312-.519-.312-.967-.373.448-.808.77-1.304.967a4.284 4.284 0 01-1.608.297c-.372 0-.725-.04-1.056-.12a2.342 2.342 0 01-.87-.401 1.942 1.942 0 01-.593-.719c-.145-.293-.216-.648-.216-1.064 0-.47.08-.853.239-1.152.16-.299.37-.541.632-.73.261-.185.56-.327.896-.423.336-.095.68-.175 1.033-.24.372-.074.728-.13 1.064-.167.335-.037.632-.09.888-.161a1.48 1.48 0 00.608-.303c.148-.135.224-.328.224-.585 0-.296-.056-.538-.168-.719a1.145 1.145 0 00-.433-.416 1.72 1.72 0 00-.592-.193 4.66 4.66 0 00-.647-.047c-.576 0-1.056.11-1.44.328-.385.219-.593.632-.625 1.24h-1.36c.021-.512.128-.944.321-1.297.192-.352.447-.638.767-.856.32-.218.688-.376 1.104-.472a5.897 5.897 0 011.312-.143c.375 0 .744.025 1.112.08.37.052.703.161 1 .328.299.164.54.397.72.696.181.299.272.687.272 1.168v4.256c0 .32.02.555.056.703.037.15.164.224.377.224.118 0 .255-.026.416-.079v1.056c-.236.137-.56.208-.976.208M205.805 201.788v11.423h-1.361v-11.423h1.361M209.356 201.788v11.423h-1.36v-11.423h1.36M135.805 225.339v-1.2h1.392v-1.231c0-.672.195-1.181.584-1.528.39-.347.958-.52 1.704-.52.128 0 .275.01.44.03.166.023.312.055.44.097v1.185a1.619 1.619 0 00-.384-.088 3.367 3.367 0 00-.384-.024c-.33 0-.586.064-.768.19-.181.13-.272.375-.272.737v1.152h1.6v1.2h-1.6v7.073h-1.36v-7.073h-1.392M142.565 229.62c.132.39.318.713.552.976.235.261.51.461.823.6.315.137.65.208 1 .208.353 0 .687-.07 1-.208.315-.139.59-.339.825-.6.234-.263.419-.587.552-.976.134-.39.2-.835.2-1.336a4.11 4.11 0 00-.2-1.336 2.893 2.893 0 00-.552-.984 2.368 2.368 0 00-.825-.608 2.423 2.423 0 00-1-.21c-.35 0-.685.07-1 .21a2.358 2.358 0 00-.823.608c-.234.267-.42.593-.552.984-.133.39-.2.833-.2 1.336 0 .501.067.947.2 1.336zm-1.384-3.04c.171-.528.426-.987.768-1.377a3.631 3.631 0 011.264-.919c.502-.224 1.078-.336 1.727-.336.663 0 1.241.112 1.737.336.496.224.914.53 1.256.919.34.39.596.849.768 1.377.171.527.256 1.096.256 1.704 0 .607-.085 1.173-.256 1.695-.172.524-.428.98-.768 1.369-.342.39-.76.693-1.256.912-.496.217-1.074.327-1.737.327-.65 0-1.225-.11-1.727-.327a3.533 3.533 0 01-1.264-.912 3.845 3.845 0 01-.768-1.37 5.425 5.425 0 01-.256-1.694c0-.608.086-1.177.256-1.704M151.79 224.139v1.744h.031c.331-.672.736-1.167 1.216-1.487.48-.32 1.088-.47 1.824-.448v1.44c-.544 0-1.008.075-1.392.224a2.164 2.164 0 00-.928.656 2.69 2.69 0 00-.512 1.047c-.106.412-.16.882-.16 1.417v3.68h-1.36v-8.273h1.28M163.644 232.412v-8.128H160.7v-1.088c.384 0 .757-.03 1.12-.09.363-.057.69-.166.984-.327.293-.159.541-.378.745-.655.202-.277.34-.63.416-1.056h1.039v11.344h-1.36M171.772 226.516a2.197 2.197 0 00-1.19 1.359c-.102.316-.153.649-.153 1 0 .352.054.682.16.992.106.31.259.576.456.8.198.224.443.404.736.536.294.134.627.201 1 .201.374 0 .702-.067.984-.201.283-.132.52-.318.712-.552.192-.234.339-.504.44-.807.102-.305.152-.623.152-.953 0-.352-.045-.686-.136-1a2.208 2.208 0 00-.424-.815 2.112 2.112 0 00-.72-.552 2.3 2.3 0 00-1.008-.21c-.384 0-.72.069-1.009.202zm2.465-3.784c-.33-.31-.768-.464-1.312-.464-.576 0-1.041.141-1.392.424a2.887 2.887 0 00-.824 1.07 5.251 5.251 0 00-.409 1.402c-.073.5-.116.97-.127 1.408l.032.032c.32-.523.718-.901 1.192-1.136.475-.235 1.022-.353 1.64-.353.544 0 1.032.093 1.464.281a3.03 3.03 0 011.088.776c.294.33.52.719.68 1.167.16.449.24.934.24 1.457 0 .415-.064.847-.192 1.295a3.468 3.468 0 01-.632 1.224c-.294.369-.682.672-1.168.912-.485.241-1.085.36-1.801.36-.841 0-1.519-.17-2.03-.511a3.488 3.488 0 01-1.185-1.313 5.395 5.395 0 01-.552-1.76 13.022 13.022 0 01-.136-1.856c0-.778.067-1.532.2-2.264.134-.73.36-1.378.68-1.943a3.81 3.81 0 011.28-1.36c.534-.341 1.206-.512 2.016-.512.939 0 1.686.247 2.24.743.555.497.875 1.214.96 2.153h-1.361c-.063-.513-.26-.923-.59-1.232M184.421 227.076a3.093 3.093 0 00-.464-.985 2.282 2.282 0 00-.8-.687 2.437 2.437 0 00-1.144-.257c-.46 0-.849.092-1.168.273a2.328 2.328 0 00-.784.712c-.204.292-.349.625-.44 1a4.72 4.72 0 00-.136 1.136c0 .405.048.797.144 1.175.095.38.248.713.455 1 .21.289.477.521.81.696.329.176.73.265 1.2.265.467 0 .86-.092 1.175-.272.315-.181.567-.421.759-.72.192-.299.332-.641.416-1.024.085-.385.13-.779.13-1.185 0-.383-.051-.76-.153-1.127zm-4.888-2.937v1.121h.032a2.031 2.031 0 011.056-1 3.942 3.942 0 011.584-.312c.64 0 1.198.117 1.672.352a3.41 3.41 0 011.184.95c.315.4.551.863.711 1.386.161.523.241 1.077.241 1.664 0 .585-.077 1.14-.233 1.664-.153.523-.39.979-.703 1.367-.314.39-.71.696-1.184.92-.476.224-1.028.336-1.656.336-.204 0-.43-.022-.681-.063a3.744 3.744 0 01-.743-.21 2.882 2.882 0 01-.696-.391 2.204 2.204 0 01-.552-.615h-.032v4.255h-1.36v-11.424h1.36M186.956 224.139h1.744l1.984 2.896 2.064-2.896h1.633l-2.849 3.809 3.2 4.464h-1.744l-2.304-3.425-2.303 3.425h-1.649l3.104-4.352-2.88-3.921M200.3 227.323v1.281h-4.624v-1.281h4.624M205.436 232.412v-8.128h-2.944v-1.088c.384 0 .757-.03 1.12-.09.363-.057.69-.166.984-.327.293-.159.541-.378.744-.655.203-.277.341-.63.416-1.056h1.04v11.344h-1.36M210.876 223.484c.15-.492.381-.915.696-1.273a3.28 3.28 0 011.176-.839c.47-.203 1.003-.304 1.6-.304.49 0 .952.07 1.384.216a3.34 3.34 0 011.128.624c.32.272.573.61.76 1.015.187.405.28.876.28 1.408 0 .502-.077.945-.232 1.328-.155.385-.36.729-.616 1.033-.256.303-.55.579-.88.824-.33.244-.672.479-1.024.703-.352.213-.704.424-1.056.633-.352.208-.675.43-.968.664a4.351 4.351 0 00-.752.76c-.208.27-.344.584-.408.935h5.824v1.201h-7.408c.053-.672.173-1.245.36-1.72.187-.476.424-.89.712-1.241a5.35 5.35 0 01.976-.927 14.33 14.33 0 011.136-.753c.48-.299.901-.574 1.264-.823.363-.25.664-.505.904-.76.24-.256.421-.535.544-.832.123-.299.184-.645.184-1.041a1.966 1.966 0 00-.648-1.487 2.013 2.013 0 00-.696-.416 2.453 2.453 0 00-.848-.144c-.395 0-.733.083-1.016.248a2.132 2.132 0 00-.696.648 2.695 2.695 0 00-.392.904c-.08.336-.115.675-.104 1.016h-1.36a4.587 4.587 0 01.176-1.6M221.044 228.26c.027.528.113 1.024.256 1.488.144.463.376.856.696 1.175.32.321.768.481 1.344.481.577 0 1.024-.16 1.345-.481.319-.319.551-.712.696-1.175.143-.464.228-.96.255-1.488.027-.528.04-1.007.04-1.432 0-.279-.003-.584-.008-.92a8.021 8.021 0 00-.287-1.993 2.603 2.603 0 00-.401-.839 2.034 2.034 0 00-.664-.584c-.267-.15-.592-.224-.976-.224s-.71.075-.976.224a2.06 2.06 0 00-.664.584 2.6 2.6 0 00-.4.839c-.09.321-.16.648-.208.985a8.021 8.021 0 00-.08 1.008c-.005.336-.008.641-.008.92 0 .425.013.904.04 1.432zm-1.448-2.713a8.78 8.78 0 01.16-1.311c.085-.427.21-.832.368-1.216.16-.384.379-.72.656-1.008a3.009 3.009 0 011.048-.69c.423-.169.925-.254 1.512-.254s1.09.085 1.513.255c.42.172.77.401 1.047.689.277.288.496.624.656 1.008.16.384.283.79.368 1.216.085.425.139.863.16 1.31a27.285 27.285 0 010 2.593 8.798 8.798 0 01-.16 1.312 6.21 6.21 0 01-.368 1.208c-.16.38-.379.713-.656 1-.277.289-.624.516-1.04.68-.416.166-.921.248-1.52.248-.587 0-1.09-.082-1.512-.248a2.866 2.866 0 01-1.048-.68 3.221 3.221 0 01-.656-1 6.303 6.303 0 01-.368-1.208 8.798 8.798 0 01-.16-1.312 27.175 27.175 0 010-2.592M235.108 227.076a3.065 3.065 0 00-.464-.985 2.27 2.27 0 00-.8-.687c-.325-.17-.707-.257-1.144-.257-.459 0-.848.092-1.168.273a2.34 2.34 0 00-.784.712c-.203.292-.35.625-.44 1-.09.373-.136.75-.136 1.136 0 .405.048.797.144 1.175.096.38.248.713.456 1 .208.289.477.521.81.696.329.176.729.265 1.198.265.47 0 .861-.092 1.176-.272.315-.181.568-.421.76-.72.192-.299.33-.641.416-1.024.085-.385.128-.779.128-1.185 0-.383-.05-.76-.152-1.127zm-4.888-2.937v1.121h.032a2.036 2.036 0 011.056-1 3.942 3.942 0 011.584-.312c.64 0 1.197.117 1.672.352.475.233.87.552 1.184.95.315.4.552.863.712 1.386.16.523.24 1.077.24 1.664 0 .585-.077 1.14-.232 1.664a3.9 3.9 0 01-.704 1.367 3.31 3.31 0 01-1.183.92c-.476.224-1.028.336-1.657.336-.203 0-.43-.022-.68-.063a3.782 3.782 0 01-.744-.21 2.874 2.874 0 01-.695-.391 2.188 2.188 0 01-.553-.615h-.032v4.255h-1.36v-11.424h1.36M237.644 224.139h1.744l1.984 2.896 2.064-2.896h1.632l-2.848 3.809 3.2 4.464h-1.744l-2.304-3.425-2.304 3.425h-1.648l3.104-4.352-2.88-3.921M447.51 201.787v10.142h6.049v1.282h-7.567v-11.424h1.519M459.11 209.219c-.278.058-.566.106-.871.144-.304.037-.612.08-.92.126-.31.05-.588.127-.832.232-.246.107-.446.26-.6.458-.156.196-.231.466-.231.808 0 .224.044.413.135.568.09.153.208.278.352.374.142.098.314.167.513.21a2.8 2.8 0 00.599.064c.448 0 .832-.062 1.152-.184.318-.123.581-.278.784-.464.201-.188.353-.391.448-.61a1.55 1.55 0 00.144-.614v-1.394a1.71 1.71 0 01-.672.282zm1.905 4.166c-.352 0-.632-.097-.842-.294-.206-.198-.31-.52-.31-.968-.374.448-.81.77-1.304.968a4.317 4.317 0 01-1.61.294c-.372 0-.724-.038-1.054-.12a2.366 2.366 0 01-.872-.398 1.935 1.935 0 01-.591-.722c-.147-.292-.216-.648-.216-1.064 0-.468.079-.852.239-1.152.158-.297.37-.54.632-.726.261-.187.56-.328.896-.424.336-.096.68-.178 1.032-.24.372-.075.728-.131 1.064-.17.336-.036.632-.089.888-.158.256-.07.458-.172.608-.304.148-.134.224-.328.224-.584 0-.299-.056-.539-.168-.722a1.159 1.159 0 00-.432-.414 1.754 1.754 0 00-.594-.192 4.47 4.47 0 00-.646-.05c-.576 0-1.056.111-1.44.328-.384.219-.592.634-.624 1.242h-1.36c.021-.512.128-.944.32-1.296.192-.352.448-.638.766-.856.32-.22.69-.376 1.104-.472a5.84 5.84 0 011.314-.144c.373 0 .744.026 1.112.078.368.055.701.164 1 .328.298.167.538.399.72.698.18.297.272.688.272 1.168v4.254c0 .32.018.555.056.706.037.149.162.224.376.224.117 0 .254-.027.417-.08v1.056c-.236.138-.56.206-.977.206M464.487 204.937v1.746h.03c.331-.672.738-1.168 1.216-1.49.482-.318 1.09-.468 1.826-.446v1.44c-.544 0-1.008.073-1.394.224-.382.149-.692.368-.926.656a2.707 2.707 0 00-.514 1.048c-.106.41-.158.882-.158 1.416v3.68h-1.36v-8.274h1.28M472.605 211.825c.316-.184.568-.43.762-.734.192-.304.333-.648.424-1.032.09-.384.136-.768.136-1.152 0-.363-.043-.72-.128-1.074a2.943 2.943 0 00-.41-.95 2.09 2.09 0 00-.726-.68c-.299-.172-.662-.258-1.088-.258-.438 0-.811.084-1.12.248-.31.167-.563.388-.76.666a2.795 2.795 0 00-.432.958 4.621 4.621 0 00-.136 1.138c0 .373.036.745.112 1.12.074.373.202.712.382 1.016.183.304.423.55.722.734.298.188.672.282 1.12.282.448 0 .828-.094 1.142-.282zm1.738 3.722c-.62.672-1.59 1.008-2.911 1.008a5.64 5.64 0 01-1.177-.128 3.625 3.625 0 01-1.09-.416 2.534 2.534 0 01-.806-.754c-.214-.309-.331-.686-.352-1.134h1.36c.01.244.088.453.232.624.144.17.32.308.528.414.208.107.434.186.68.234.244.048.478.072.702.072.45 0 .828-.079 1.138-.232.308-.155.566-.368.768-.642.201-.27.349-.598.44-.984.089-.382.137-.804.137-1.262v-.544h-.033c-.236.512-.59.888-1.064 1.126a3.29 3.29 0 01-1.512.362c-.619 0-1.158-.112-1.615-.336a3.38 3.38 0 01-1.155-.906 3.824 3.824 0 01-.694-1.328 5.463 5.463 0 01-.232-1.606c0-.491.064-.995.193-1.514a4.13 4.13 0 01.639-1.408 3.55 3.55 0 011.184-1.04c.49-.27 1.093-.406 1.806-.406.524 0 1.003.116 1.44.344.438.229.779.573 1.026 1.032h.017v-1.186h1.279v7.57c0 1.353-.311 2.368-.928 3.04M482.845 207.37a2.307 2.307 0 00-.494-.743 2.338 2.338 0 00-1.672-.682c-.352 0-.671.063-.954.186-.282.122-.525.29-.728.504a2.446 2.446 0 00-.48.742 2.812 2.812 0 00-.206.906h4.75a2.765 2.765 0 00-.216-.914zm.328 5.313c-.617.468-1.397.702-2.336.702-.661 0-1.233-.106-1.718-.318a3.368 3.368 0 01-1.224-.896 3.806 3.806 0 01-.744-1.376 6.586 6.586 0 01-.28-1.746c0-.628.094-1.204.288-1.726.192-.523.46-.976.806-1.36a3.658 3.658 0 011.234-.896c.473-.214.993-.32 1.56-.32.736 0 1.346.152 1.832.456.484.304.874.69 1.168 1.16.292.469.496.981.608 1.536.112.554.156 1.082.134 1.582h-6.19c-.012.364.032.708.128 1.034a2.275 2.275 0 001.279 1.464c.331.149.72.224 1.167.224.578 0 1.05-.134 1.416-.4.37-.267.612-.672.73-1.216h1.344c-.183.928-.582 1.626-1.202 2.096M487.143 204.937v1.746h.03c.331-.672.738-1.168 1.216-1.49.48-.318 1.09-.468 1.826-.446v1.44c-.546 0-1.008.073-1.392.224-.384.149-.695.368-.93.656a2.722 2.722 0 00-.51 1.048c-.108.41-.16.882-.16 1.416v3.68h-1.362v-8.274h1.282M424.343 225.339v-1.2h1.392v-1.232c0-.672.194-1.183.585-1.53.388-.346.955-.518 1.703-.518.128 0 .274.01.44.032.165.021.312.052.44.096v1.182a1.821 1.821 0 00-.384-.088 3.704 3.704 0 00-.384-.024c-.331 0-.586.066-.768.194-.182.126-.271.373-.271.736v1.152h1.599v1.2h-1.599v7.072h-1.361v-7.072h-1.392M431.104 229.617c.132.391.316.716.552.976a2.432 2.432 0 001.823.81 2.441 2.441 0 001.824-.81c.234-.26.417-.585.552-.976.134-.388.198-.833.198-1.336 0-.5-.064-.945-.198-1.336a2.912 2.912 0 00-.552-.982 2.346 2.346 0 00-.824-.608 2.463 2.463 0 00-1-.21c-.352 0-.686.071-1 .21-.316.137-.59.341-.823.608-.236.266-.42.594-.552.982a4.09 4.09 0 00-.201 1.336c0 .503.066.948.201 1.336zm-1.387-3.038a3.86 3.86 0 01.77-1.376c.341-.391.762-.698 1.264-.922.501-.224 1.077-.336 1.728-.336.661 0 1.238.112 1.737.336.495.224.913.531 1.255.922.341.388.596.846.768 1.376.17.528.256 1.096.256 1.702 0 .61-.086 1.175-.256 1.696-.172.523-.427.98-.768 1.37-.342.389-.76.692-1.255.91-.499.219-1.076.33-1.737.33-.651 0-1.227-.111-1.728-.33a3.53 3.53 0 01-1.264-.91 3.9 3.9 0 01-.77-1.37 5.5 5.5 0 01-.254-1.696c0-.606.086-1.174.254-1.702M440.328 224.139v1.744h.03c.331-.672.738-1.17 1.217-1.49.478-.318 1.088-.469 1.824-.448v1.44c-.544 0-1.008.076-1.392.224-.384.151-.694.368-.928.656a2.73 2.73 0 00-.512 1.05 5.64 5.64 0 00-.16 1.416v3.68h-1.36v-8.272h1.281M452.181 232.41v-8.129h-2.942v-1.088c.382 0 .756-.029 1.12-.086.361-.06.69-.17.984-.328.292-.162.54-.379.744-.656.201-.278.341-.631.414-1.056h1.042v11.344h-1.362M457.623 223.481c.149-.489.381-.913.697-1.27a3.269 3.269 0 011.175-.842c.469-.201 1.001-.302 1.601-.302.49 0 .95.072 1.383.214.432.146.808.354 1.126.626.322.272.575.61.762 1.014.186.407.281.876.281 1.41 0 .5-.079.942-.233 1.328a3.86 3.86 0 01-.616 1.032c-.255.304-.55.577-.88.824-.331.245-.672.48-1.024.704-.351.213-.704.422-1.058.632-.35.206-.674.429-.965.664a4.4 4.4 0 00-.753.758 2.162 2.162 0 00-.408.938h5.825v1.2h-7.41c.054-.672.174-1.247.36-1.72a4.6 4.6 0 01.713-1.24c.288-.352.613-.662.976-.928.362-.268.741-.518 1.136-.752.48-.299.902-.575 1.264-.826.362-.249.664-.502.904-.758.238-.258.421-.534.544-.832.122-.3.185-.647.185-1.04 0-.31-.06-.591-.177-.84a2.071 2.071 0 00-.472-.65c-.198-.18-.43-.32-.696-.414a2.485 2.485 0 00-.848-.146c-.396 0-.735.084-1.016.25a2.142 2.142 0 00-.696.646c-.182.268-.311.57-.392.906a3.79 3.79 0 00-.104 1.014h-1.36a4.587 4.587 0 01.176-1.6M467.79 228.257a6.04 6.04 0 00.257 1.49c.144.464.376.854.696 1.174.318.322.766.482 1.344.482.576 0 1.024-.16 1.345-.482.319-.32.55-.71.695-1.174.144-.466.229-.96.256-1.49a30.233 30.233 0 00.032-2.35 7.715 7.715 0 00-.288-1.992 2.57 2.57 0 00-.402-.84 2.053 2.053 0 00-.664-.586c-.265-.148-.59-.224-.974-.224s-.71.076-.976.224c-.268.152-.49.344-.664.586-.176.24-.31.518-.4.84-.092.32-.16.648-.21.984a8.277 8.277 0 00-.078 1.008c-.006.336-.008.642-.008.918 0 .428.013.906.04 1.432zm-1.447-2.71a9 9 0 01.158-1.312c.087-.427.21-.832.37-1.216s.378-.72.656-1.008c.277-.29.626-.519 1.048-.688.421-.172.924-.256 1.512-.256.586 0 1.089.084 1.512.256.421.169.77.398 1.048.688.277.288.496.624.656 1.008.16.384.282.789.368 1.216.085.426.138.864.158 1.312a25.651 25.651 0 010 2.592c-.02.448-.073.885-.158 1.312-.086.426-.208.829-.368 1.208-.16.377-.379.71-.656 1a2.925 2.925 0 01-1.042.68c-.414.164-.921.248-1.518.248-.588 0-1.091-.084-1.512-.248a2.918 2.918 0 01-1.048-.68 3.285 3.285 0 01-.656-1 6.334 6.334 0 01-.37-1.208 9 9 0 01-.158-1.312 27.315 27.315 0 010-2.592M481.855 227.075a3.013 3.013 0 00-.466-.986 2.28 2.28 0 00-.798-.686c-.326-.171-.708-.258-1.144-.258-.459 0-.848.092-1.17.272-.32.182-.58.419-.782.714a2.98 2.98 0 00-.442 1c-.09.373-.134.752-.134 1.134 0 .407.048.799.142 1.178.098.377.25.71.456 1 .208.288.478.52.811.696.33.176.728.264 1.199.264.468 0 .86-.091 1.176-.272.314-.182.568-.423.76-.72.192-.299.33-.64.416-1.026.084-.382.128-.778.128-1.182 0-.386-.052-.76-.152-1.128zm-4.888-2.936v1.118h.032c.224-.457.576-.79 1.054-1a3.948 3.948 0 011.586-.312c.638 0 1.196.119 1.672.354.474.234.868.552 1.184.952.314.4.552.861.712 1.384.16.521.24 1.076.24 1.664 0 .586-.078 1.141-.232 1.664-.156.521-.39.977-.706 1.368a3.324 3.324 0 01-1.181.92c-.477.224-1.03.336-1.657.336a4.088 4.088 0 01-1.424-.272 2.868 2.868 0 01-.696-.394 2.155 2.155 0 01-.552-.616h-.032v4.258h-1.362v-11.424h1.362M484.39 224.139h1.745l1.982 2.894 2.064-2.894h1.634l-2.85 3.806 3.2 4.466h-1.744l-2.304-3.424-2.302 3.424h-1.65l3.106-4.354-2.882-3.918M505.59 227.817v1.09h-3.487v3.504h-1.088v-3.504h-3.488v-1.09h3.488v-3.502h1.088v3.502h3.488" fill="#176fc1"/><path d="M203.477 441.927c-11.992 0-21.717 9.724-21.717 21.72 0 9.596 6.223 17.736 14.853 20.608 1.087.2 1.483-.471 1.483-1.047 0-.516-.019-1.881-.03-3.693-6.04 1.312-7.315-2.912-7.315-2.912-.988-2.51-2.412-3.178-2.412-3.178-1.972-1.346.149-1.32.149-1.32 2.18.154 3.327 2.239 3.327 2.239 1.937 3.319 5.084 2.36 6.321 1.804.197-1.403.759-2.36 1.379-2.903-4.823-.548-9.894-2.412-9.894-10.734 0-2.371.847-4.311 2.236-5.828-.224-.55-.969-2.759.214-5.748 0 0 1.822-.584 5.972 2.226 1.732-.482 3.59-.722 5.437-.732 1.845.01 3.703.25 5.437.732 4.147-2.81 5.967-2.226 5.967-2.226 1.185 2.989.44 5.198.217 5.748 1.392 1.517 2.232 3.457 2.232 5.828 0 8.344-5.078 10.18-9.916 10.717.779.67 1.474 1.996 1.474 4.021 0 2.904-.027 5.247-.027 5.959 0 .581.392 1.257 1.493 1.045 8.624-2.878 14.842-11.013 14.842-20.606 0-11.996-9.726-21.72-21.722-21.72M467.479 376.581c-44.463 0-80.518 36.047-80.518 80.516 0 35.575 23.071 65.756 55.063 76.403 4.024.745 5.501-1.747 5.501-3.873 0-1.92-.074-8.263-.109-14.991-22.4 4.87-27.127-9.5-27.127-9.5-3.662-9.307-8.94-11.781-8.94-11.781-7.305-4.998.551-4.895.551-4.895 8.085.567 12.343 8.297 12.343 8.297 7.181 12.31 18.836 8.751 23.43 6.694.723-5.203 2.81-8.758 5.112-10.767-17.884-2.036-36.684-8.94-36.684-39.792 0-8.79 3.146-15.973 8.296-21.612-.836-2.03-3.592-10.217.78-21.308 0 0 6.762-2.164 22.148 8.253 6.423-1.784 13.311-2.678 20.154-2.709 6.842.03 13.736.925 20.17 2.71 15.368-10.418 22.12-8.254 22.12-8.254 4.383 11.09 1.626 19.279.79 21.308 5.162 5.639 8.286 12.821 8.286 21.612 0 30.925-18.836 37.735-36.765 39.728 2.888 2.499 5.461 7.399 5.461 14.91 0 10.773-.093 19.443-.093 22.097 0 2.142 1.45 4.653 5.53 3.862 31.975-10.658 55.017-40.829 55.017-76.392 0-44.469-36.05-80.516-80.516-80.516" fill="#fff" fill-rule="evenodd"/><path d="M417.457 492.185c-.177.402-.806.52-1.38.246-.584-.263-.912-.808-.722-1.21.173-.412.804-.525 1.386-.252.586.264.919.815.716 1.216M420.719 495.823c-.384.356-1.135.19-1.644-.372-.527-.562-.626-1.312-.236-1.674.396-.356 1.124-.189 1.652.372.526.568.629 1.314.228 1.674M423.893 500.46c-.493.343-1.3.021-1.798-.695-.494-.716-.494-1.574.01-1.918.5-.344 1.295-.035 1.8.676.492.726.492 1.586-.012 1.937M428.243 504.94c-.442.487-1.382.356-2.07-.308-.704-.65-.9-1.57-.457-2.057.447-.488 1.392-.351 2.085.308.699.648.912 1.576.442 2.057M434.243 507.541c-.195.631-1.1.918-2.012.65-.911-.276-1.507-1.015-1.323-1.652.19-.635 1.099-.934 2.017-.647.91.275 1.507 1.008 1.318 1.65M440.832 508.024c.023.664-.75 1.215-1.708 1.225-.963.023-1.741-.514-1.752-1.168 0-.67.756-1.216 1.719-1.232.957-.018 1.741.515 1.741 1.175M446.964 506.98c.115.648-.55 1.313-1.501 1.49-.935.171-1.8-.229-1.919-.871-.116-.664.561-1.33 1.495-1.502.952-.165 1.804.224 1.925.883" fill="#fff"/><path d="M299.864 368.67v.666" fill="none" stroke="#3a7fc3" stroke-width="1.3333" stroke-linecap="round" stroke-miterlimit="10"/><path d="M299.864 372.003V550.66" fill="none" stroke="#3a7fc3" stroke-width="1.3333" stroke-linecap="round" stroke-miterlimit="10" stroke-dasharray="9.9995,19.999"/><path d="M299.864 551.993v.667" fill="none" stroke="#3a7fc3" stroke-width="1.3333" stroke-linecap="round" stroke-miterlimit="10"/><path d="M177.701 571.348c-.508-.37-1.154-.552-1.944-.552-.32 0-.634.032-.944.095-.31.065-.584.172-.824.32a1.72 1.72 0 00-.577.601c-.143.25-.215.563-.215.936 0 .35.103.637.312.856.207.219.486.397.832.536.347.139.738.253 1.176.344.438.09.883.19 1.336.295a16 16 0 011.336.377c.438.144.83.339 1.176.584.347.244.624.555.832.927.208.374.312.844.312 1.409 0 .608-.136 1.127-.408 1.56a3.372 3.372 0 01-1.048 1.056c-.426.272-.904.47-1.432.592a6.96 6.96 0 01-3.392-.056 4.492 4.492 0 01-1.504-.728 3.458 3.458 0 01-1.024-1.25c-.25-.505-.376-1.105-.376-1.798h1.44c0 .48.092.893.28 1.24.187.347.432.63.736.855.304.224.658.39 1.064.497.406.107.82.159 1.248.159.342 0 .686-.03 1.032-.097.347-.062.659-.171.936-.327a1.85 1.85 0 00.672-.63c.171-.27.256-.61.256-1.025 0-.395-.105-.715-.312-.96a2.323 2.323 0 00-.832-.6 6.133 6.133 0 00-1.176-.376l-1.336-.297c-.453-.1-.898-.218-1.336-.352a4.79 4.79 0 01-1.176-.527 2.528 2.528 0 01-.832-.848c-.208-.347-.312-.781-.312-1.305 0-.575.118-1.074.352-1.495.235-.422.547-.768.936-1.041.39-.271.832-.474 1.328-.607a5.86 5.86 0 011.528-.2c.587 0 1.131.07 1.632.208a3.68 3.68 0 011.319.656c.38.299.679.675.897 1.128.218.453.339.995.36 1.624h-1.44c-.086-.822-.381-1.416-.888-1.784M183.405 572.94v1.216h.032c.618-.94 1.508-1.408 2.671-1.408.513 0 .976.107 1.392.32.417.213.71.575.881 1.088a2.9 2.9 0 011.096-1.04 3.079 3.079 0 011.495-.368c.416 0 .793.045 1.13.135.335.09.622.233.863.423.24.194.426.442.559.746.135.304.2.67.2 1.096v6.063h-1.359v-5.423c0-.258-.022-.496-.065-.72a1.443 1.443 0 00-.239-.584 1.22 1.22 0 00-.488-.393c-.208-.096-.477-.143-.808-.143-.672 0-1.2.192-1.584.576-.384.384-.576.896-.576 1.536v5.15h-1.361v-5.422c0-.266-.024-.512-.07-.736a1.565 1.565 0 00-.249-.584 1.184 1.184 0 00-.472-.385c-.198-.091-.452-.135-.76-.135-.394 0-.733.079-1.016.24a2.296 2.296 0 00-1.072 1.272c-.081.24-.12.44-.12.6v5.15h-1.36v-8.27h1.28M200.22 577.218c-.277.06-.567.107-.87.146-.305.037-.613.078-.922.128-.31.047-.587.125-.83.232a1.495 1.495 0 00-.602.456c-.155.197-.23.465-.23.807 0 .224.043.414.134.568.09.156.208.281.352.377.144.095.315.164.513.208.198.043.396.063.599.063.448 0 .832-.06 1.153-.183.319-.123.58-.278.783-.465.203-.186.353-.388.448-.607a1.54 1.54 0 00.144-.618v-1.39a1.67 1.67 0 01-.672.278zm1.905 4.17c-.353 0-.632-.099-.841-.297-.207-.196-.312-.519-.312-.967a3.24 3.24 0 01-1.304.967 4.287 4.287 0 01-1.608.297c-.372 0-.725-.04-1.056-.12a2.336 2.336 0 01-.87-.401 1.944 1.944 0 01-.593-.719c-.145-.293-.216-.648-.216-1.065 0-.468.08-.853.239-1.151.16-.298.37-.541.632-.73a2.92 2.92 0 01.896-.423c.336-.095.68-.175 1.033-.24.372-.074.728-.13 1.064-.167.335-.037.632-.09.888-.161.255-.068.458-.17.608-.303.148-.135.224-.328.224-.585 0-.298-.056-.538-.168-.72a1.145 1.145 0 00-.433-.415 1.723 1.723 0 00-.592-.193 4.638 4.638 0 00-.647-.047c-.576 0-1.056.11-1.44.328-.385.219-.593.632-.625 1.24h-1.36c.021-.512.128-.944.321-1.298.192-.351.447-.635.767-.854.32-.219.688-.377 1.104-.473a5.89 5.89 0 011.312-.143c.375 0 .744.025 1.112.08.37.052.703.161 1 .328a1.9 1.9 0 01.72.696c.181.299.272.687.272 1.168v4.256c0 .32.02.554.056.703.037.15.164.224.377.224.118 0 .255-.026.416-.079v1.056c-.236.137-.56.208-.976.208M205.805 569.788v11.423h-1.361v-11.423h1.361M209.356 569.788v11.423h-1.36v-11.423h1.36M135.805 593.339v-1.2h1.392v-1.231c0-.672.195-1.181.584-1.528.39-.346.958-.521 1.704-.521.128 0 .275.01.44.032.166.022.312.054.44.096v1.185a1.686 1.686 0 00-.384-.09 3.676 3.676 0 00-.384-.022c-.33 0-.586.064-.768.19-.181.13-.272.375-.272.737v1.153h1.6v1.199h-1.6v7.073h-1.36v-7.073h-1.392M142.565 597.62c.132.39.318.714.552.976a2.4 2.4 0 00.823.6c.315.138.65.208 1 .208.353 0 .687-.07 1-.208a2.41 2.41 0 00.825-.6c.234-.262.419-.587.552-.976.134-.39.2-.835.2-1.336 0-.503-.066-.947-.2-1.336a2.895 2.895 0 00-.552-.984 2.42 2.42 0 00-1.825-.817c-.35 0-.685.069-1 .209a2.356 2.356 0 00-.823.608 2.85 2.85 0 00-.552.984c-.133.39-.2.833-.2 1.336 0 .501.067.946.2 1.336zm-1.384-3.04c.171-.528.426-.987.768-1.377a3.632 3.632 0 011.264-.919c.502-.224 1.078-.336 1.727-.336.663 0 1.241.112 1.737.336.496.224.914.53 1.256.919.34.39.596.849.768 1.377.171.526.256 1.096.256 1.704 0 .607-.085 1.173-.256 1.695a3.91 3.91 0 01-.768 1.37c-.342.388-.76.692-1.256.911-.496.217-1.074.327-1.737.327-.65 0-1.225-.11-1.727-.327a3.538 3.538 0 01-1.264-.912 3.848 3.848 0 01-.768-1.37 5.426 5.426 0 01-.256-1.694c0-.608.086-1.178.256-1.704M151.79 592.14v1.743h.031c.331-.672.736-1.167 1.216-1.487.48-.32 1.088-.47 1.824-.448v1.44c-.544 0-1.008.075-1.392.224a2.165 2.165 0 00-.928.656 2.694 2.694 0 00-.512 1.047c-.106.412-.16.882-.16 1.417v3.68h-1.36v-8.272h1.28M163.644 600.412v-8.128H160.7v-1.088c.384 0 .757-.03 1.12-.09a3 3 0 00.984-.327c.293-.159.541-.378.745-.655.202-.277.34-.63.416-1.056h1.039v11.344h-1.36M171.772 594.516a2.195 2.195 0 00-1.19 1.359c-.102.316-.153.65-.153 1 0 .352.054.682.16.992.106.31.259.575.456.8.198.224.443.404.736.536.294.134.627.2 1 .2.374 0 .702-.066.984-.2.283-.132.52-.318.712-.552.192-.235.339-.504.44-.807.102-.305.152-.622.152-.953 0-.352-.045-.686-.136-1a2.212 2.212 0 00-.424-.815 2.11 2.11 0 00-.72-.552 2.293 2.293 0 00-1.008-.21c-.384 0-.72.069-1.009.202zm2.465-3.784c-.33-.31-.768-.464-1.312-.464-.576 0-1.041.141-1.392.424a2.874 2.874 0 00-.824 1.07 5.25 5.25 0 00-.409 1.402c-.073.5-.116.97-.127 1.408l.032.032c.32-.523.718-.901 1.192-1.136.475-.234 1.022-.353 1.64-.353.544 0 1.032.093 1.464.281.432.187.795.445 1.088.776.294.33.52.719.68 1.167.16.449.24.934.24 1.457 0 .415-.064.847-.192 1.295a3.468 3.468 0 01-.632 1.224c-.294.369-.682.672-1.168.912-.485.24-1.085.36-1.801.36-.841 0-1.519-.171-2.03-.511a3.488 3.488 0 01-1.185-1.313 5.395 5.395 0 01-.552-1.76 13.013 13.013 0 01-.136-1.856c0-.778.067-1.532.2-2.264.134-.73.36-1.378.68-1.943a3.815 3.815 0 011.28-1.36c.534-.341 1.206-.512 2.016-.512.939 0 1.686.247 2.24.743.555.495.875 1.214.96 2.153h-1.361c-.063-.513-.26-.923-.59-1.232M184.421 595.076a3.09 3.09 0 00-.464-.985 2.284 2.284 0 00-.8-.687 2.442 2.442 0 00-1.144-.257c-.46 0-.849.092-1.168.273a2.328 2.328 0 00-.784.712 2.93 2.93 0 00-.44 1 4.72 4.72 0 00-.136 1.136c0 .405.048.797.144 1.174.095.38.248.714.455 1 .21.29.477.522.81.698.329.175.73.264 1.2.264.467 0 .86-.092 1.175-.272.315-.181.567-.421.759-.72a3.12 3.12 0 00.416-1.024c.085-.385.13-.779.13-1.185 0-.383-.051-.76-.153-1.127zm-4.888-2.936v1.12h.032a2.03 2.03 0 011.056-1 3.935 3.935 0 011.584-.312c.64 0 1.198.117 1.672.352.475.234.868.552 1.184.95.315.4.551.863.711 1.386.161.523.241 1.077.241 1.664 0 .585-.077 1.14-.233 1.664-.153.523-.39.978-.703 1.366-.314.392-.71.697-1.184.92-.476.225-1.028.337-1.656.337-.204 0-.43-.022-.681-.063a3.762 3.762 0 01-.743-.21 2.887 2.887 0 01-.696-.391 2.19 2.19 0 01-.552-.617h-.032v4.257h-1.36V592.14h1.36M186.956 592.14h1.744l1.984 2.895 2.064-2.895h1.633l-2.849 3.808 3.2 4.464h-1.744l-2.304-3.425-2.303 3.425h-1.649l3.104-4.352-2.88-3.92M200.3 595.323v1.28h-4.624v-1.28h4.624M205.436 600.412v-8.128h-2.944v-1.088c.384 0 .757-.03 1.12-.09a3 3 0 00.984-.327 2.23 2.23 0 00.744-.655c.203-.277.341-.63.416-1.056h1.04v11.344h-1.36M210.876 591.484c.15-.492.381-.915.696-1.273a3.28 3.28 0 011.176-.839c.47-.203 1.003-.304 1.6-.304.49 0 .952.072 1.384.216.432.143.808.352 1.128.624.32.272.573.61.76 1.015.187.405.28.876.28 1.407 0 .504-.077.946-.232 1.329-.155.385-.36.73-.616 1.033-.256.303-.55.579-.88.824-.33.244-.672.479-1.024.702-.352.214-.704.425-1.056.634-.352.208-.675.43-.968.664a4.319 4.319 0 00-.752.76c-.208.27-.344.583-.408.935h5.824v1.201h-7.408c.053-.672.173-1.245.36-1.72.187-.476.424-.89.712-1.241a5.35 5.35 0 01.976-.927c.363-.267.741-.518 1.136-.753a32.4 32.4 0 001.264-.823c.363-.25.664-.506.904-.76.24-.256.421-.535.544-.832.123-.299.184-.645.184-1.041a1.966 1.966 0 00-.648-1.487 2.015 2.015 0 00-.696-.416 2.453 2.453 0 00-.848-.144c-.395 0-.733.083-1.016.248a2.134 2.134 0 00-.696.648 2.699 2.699 0 00-.392.904c-.08.336-.115.674-.104 1.015h-1.36a4.578 4.578 0 01.176-1.599M221.044 596.26c.027.528.113 1.024.256 1.488.144.463.376.856.696 1.175.32.321.768.48 1.344.48.577 0 1.024-.159 1.345-.48.319-.32.551-.712.696-1.175.143-.464.228-.96.255-1.488.027-.528.04-1.007.04-1.432 0-.279-.003-.584-.008-.92a8.017 8.017 0 00-.287-1.992 2.603 2.603 0 00-.401-.84 2.021 2.021 0 00-.664-.584c-.267-.15-.592-.224-.976-.224s-.71.074-.976.224a2.048 2.048 0 00-.664.584 2.6 2.6 0 00-.4.84c-.09.32-.16.647-.208.984a8.017 8.017 0 00-.08 1.008c-.005.336-.008.641-.008.92 0 .425.013.904.04 1.432zm-1.448-2.713c.021-.448.075-.886.16-1.31.085-.427.21-.833.368-1.217.16-.384.379-.72.656-1.008a3.007 3.007 0 011.048-.69c.423-.169.925-.254 1.512-.254s1.09.085 1.513.255c.42.172.77.401 1.047.69.277.287.496.623.656 1.007.16.384.283.79.368 1.216.085.425.139.863.16 1.31a27.294 27.294 0 010 2.594 8.803 8.803 0 01-.16 1.31c-.085.427-.208.831-.368 1.209-.16.38-.379.713-.656 1-.277.29-.624.516-1.04.68-.416.166-.921.248-1.52.248-.587 0-1.09-.082-1.512-.248a2.865 2.865 0 01-1.048-.68 3.215 3.215 0 01-.656-1 6.296 6.296 0 01-.368-1.208 8.803 8.803 0 01-.16-1.311 27.253 27.253 0 010-2.593M235.108 595.076a3.062 3.062 0 00-.464-.985 2.272 2.272 0 00-.8-.687 2.434 2.434 0 00-1.144-.257c-.459 0-.848.092-1.168.273a2.34 2.34 0 00-.784.712c-.203.292-.35.625-.44 1-.09.373-.136.75-.136 1.136 0 .405.048.797.144 1.174.096.38.248.714.456 1 .208.29.477.522.81.698.329.175.729.264 1.198.264.47 0 .861-.092 1.176-.272.315-.181.568-.421.76-.72a3.15 3.15 0 00.416-1.024c.085-.385.128-.779.128-1.185 0-.383-.05-.76-.152-1.127zm-4.888-2.936v1.12h.032a2.034 2.034 0 011.056-1 3.935 3.935 0 011.584-.312c.64 0 1.197.117 1.672.352.475.234.87.552 1.184.95.315.4.552.863.712 1.386.16.523.24 1.077.24 1.664 0 .585-.077 1.14-.232 1.664-.155.523-.39.978-.704 1.366-.315.392-.71.697-1.183.92-.476.225-1.028.337-1.657.337-.203 0-.43-.022-.68-.063a3.8 3.8 0 01-.744-.21 2.879 2.879 0 01-.695-.391 2.174 2.174 0 01-.553-.617h-.032v4.257h-1.36V592.14h1.36M237.644 592.14h1.744l1.984 2.895 2.064-2.895h1.632l-2.848 3.808 3.2 4.464h-1.744l-2.304-3.425-2.304 3.425h-1.648l3.104-4.352-2.88-3.92M447.51 569.787v10.142h6.049v1.282h-7.567v-11.424h1.519M459.11 577.218a10.2 10.2 0 01-.871.145c-.304.037-.612.08-.92.126-.31.05-.588.127-.832.233-.246.106-.446.26-.6.457-.156.196-.231.466-.231.808 0 .224.044.413.135.568.09.153.208.279.352.374.142.096.314.167.513.21a2.8 2.8 0 00.599.064c.448 0 .832-.063 1.152-.185.318-.122.581-.277.784-.463.201-.188.353-.391.448-.61.094-.217.144-.422.144-.615v-1.393c-.172.13-.396.222-.672.281zm1.905 4.167c-.352 0-.632-.097-.842-.294-.206-.198-.31-.52-.31-.968-.374.448-.81.77-1.304.968a4.324 4.324 0 01-1.61.294c-.372 0-.724-.038-1.054-.12a2.374 2.374 0 01-.872-.398 1.941 1.941 0 01-.591-.722c-.147-.292-.216-.648-.216-1.062 0-.47.079-.854.239-1.154.158-.297.37-.54.632-.726.261-.187.56-.328.896-.424.336-.096.68-.178 1.032-.24.372-.075.728-.131 1.064-.17.336-.035.632-.09.888-.158.256-.071.458-.172.608-.305.148-.133.224-.327.224-.583 0-.299-.056-.539-.168-.722a1.16 1.16 0 00-.432-.414 1.728 1.728 0 00-.594-.192 4.489 4.489 0 00-.646-.05c-.576 0-1.056.111-1.44.328-.384.219-.592.633-.624 1.242h-1.36c.021-.512.128-.944.32-1.297a2.44 2.44 0 01.766-.855c.32-.22.69-.376 1.104-.472a5.824 5.824 0 011.314-.144c.373 0 .744.026 1.112.078.368.055.701.164 1 .328.298.167.538.399.72.698.18.297.272.688.272 1.167v4.255c0 .32.018.555.056.706.037.149.162.224.376.224.117 0 .254-.027.417-.08v1.056c-.236.138-.56.206-.977.206M464.487 572.937v1.746h.03c.331-.672.738-1.168 1.216-1.49.482-.318 1.09-.468 1.826-.446v1.44c-.544 0-1.008.073-1.394.224-.382.15-.692.368-.926.656a2.706 2.706 0 00-.514 1.048c-.106.41-.158.882-.158 1.415v3.68h-1.36v-8.273h1.28M472.605 579.825c.316-.185.568-.43.762-.734.192-.304.333-.649.424-1.032.09-.384.136-.768.136-1.153 0-.362-.043-.72-.128-1.072a2.943 2.943 0 00-.41-.951 2.09 2.09 0 00-.726-.68c-.299-.173-.662-.258-1.088-.258-.438 0-.811.084-1.12.248a2.18 2.18 0 00-.76.666 2.798 2.798 0 00-.432.958 4.622 4.622 0 00-.136 1.137c0 .374.036.746.112 1.12.074.374.202.713.382 1.017.183.304.423.549.722.734.298.188.672.281 1.12.281.448 0 .828-.093 1.142-.28zm1.738 3.722c-.62.671-1.59 1.008-2.911 1.008a5.64 5.64 0 01-1.177-.128 3.625 3.625 0 01-1.09-.416 2.537 2.537 0 01-.806-.754c-.214-.309-.331-.686-.352-1.134h1.36c.01.244.088.453.232.624.144.169.32.308.528.414.208.107.434.186.68.234.244.047.478.072.702.072.45 0 .828-.079 1.138-.232a2.12 2.12 0 00.768-.642c.201-.27.349-.598.44-.984.089-.382.137-.804.137-1.262v-.544h-.033c-.236.512-.59.888-1.064 1.126a3.292 3.292 0 01-1.512.362c-.619 0-1.158-.112-1.615-.337a3.377 3.377 0 01-1.155-.905 3.822 3.822 0 01-.694-1.327 5.467 5.467 0 01-.232-1.607c0-.49.064-.995.193-1.514.127-.514.34-.985.639-1.408.298-.42.694-.766 1.184-1.04.49-.27 1.093-.406 1.806-.406.524 0 1.003.116 1.44.344.438.229.779.573 1.026 1.032h.017v-1.186h1.279v7.57c0 1.353-.311 2.368-.928 3.04M482.845 575.37a2.32 2.32 0 00-.494-.743 2.342 2.342 0 00-1.672-.682c-.352 0-.671.063-.954.185a2.209 2.209 0 00-.728.505 2.45 2.45 0 00-.48.742 2.812 2.812 0 00-.206.906h4.75a2.763 2.763 0 00-.216-.914zm.328 5.313c-.617.468-1.397.702-2.336.702-.661 0-1.233-.106-1.718-.318a3.368 3.368 0 01-1.224-.896 3.805 3.805 0 01-.744-1.376 6.585 6.585 0 01-.28-1.746c0-.627.094-1.204.288-1.726.192-.523.46-.976.806-1.36a3.654 3.654 0 011.234-.896c.473-.214.993-.32 1.56-.32.736 0 1.346.152 1.832.456.484.303.874.69 1.168 1.16.292.469.496.981.608 1.536.112.554.156 1.082.134 1.582h-6.19c-.012.364.032.708.128 1.034a2.279 2.279 0 001.279 1.464c.331.149.72.224 1.167.224.578 0 1.05-.134 1.416-.4.37-.267.612-.673.73-1.216h1.344c-.183.928-.582 1.626-1.202 2.096M487.143 572.937v1.746h.03c.331-.672.738-1.168 1.216-1.49.48-.318 1.09-.468 1.826-.446v1.44c-.546 0-1.008.073-1.392.224a2.2 2.2 0 00-.93.656 2.721 2.721 0 00-.51 1.048 5.59 5.59 0 00-.16 1.415v3.68h-1.362v-8.273h1.282M424.343 593.339v-1.2h1.392v-1.233c0-.671.194-1.182.585-1.529.388-.347.955-.518 1.703-.518.128 0 .274.01.44.032.165.021.312.051.44.096v1.182a1.735 1.735 0 00-.384-.086 3.478 3.478 0 00-.384-.026c-.331 0-.586.066-.768.192-.182.128-.271.375-.271.738v1.152h1.599v1.2h-1.599v7.072h-1.361v-7.072h-1.392M431.104 597.617c.132.391.316.717.552.976a2.43 2.43 0 001.823.81 2.439 2.439 0 001.824-.81c.234-.26.417-.585.552-.976.134-.388.198-.833.198-1.336 0-.5-.064-.945-.198-1.336a2.912 2.912 0 00-.552-.982 2.34 2.34 0 00-.824-.608c-.316-.14-.65-.21-1-.21-.352 0-.686.07-1 .21a2.3 2.3 0 00-.823.608c-.236.266-.42.594-.552.982a4.09 4.09 0 00-.201 1.336c0 .503.066.948.201 1.336zm-1.387-3.038c.172-.53.428-.988.77-1.376.341-.39.762-.698 1.264-.922.501-.224 1.077-.336 1.728-.336.661 0 1.238.112 1.737.336.495.224.913.531 1.255.922.341.388.596.846.768 1.376.17.527.256 1.096.256 1.702a5.42 5.42 0 01-.256 1.696c-.172.523-.427.98-.768 1.37a3.55 3.55 0 01-1.255.91c-.499.22-1.076.33-1.737.33-.651 0-1.227-.11-1.728-.33a3.527 3.527 0 01-1.264-.91 3.895 3.895 0 01-.77-1.37 5.5 5.5 0 01-.254-1.696c0-.606.086-1.175.254-1.702M440.328 592.139v1.744h.03c.331-.672.738-1.17 1.217-1.49.478-.318 1.088-.469 1.824-.448v1.44c-.544 0-1.008.076-1.392.224a2.21 2.21 0 00-.928.656 2.73 2.73 0 00-.512 1.05c-.107.41-.16.882-.16 1.415v3.68h-1.36v-8.271h1.281M452.181 600.41v-8.129h-2.942v-1.088c.382 0 .756-.03 1.12-.087.361-.06.69-.169.984-.327.292-.162.54-.379.744-.656.201-.278.341-.631.414-1.056h1.042v11.344h-1.362M457.623 591.481c.149-.49.381-.913.697-1.27a3.263 3.263 0 011.175-.842c.469-.201 1.001-.302 1.601-.302.49 0 .95.072 1.383.214a3.37 3.37 0 011.126.625c.322.273.575.611.762 1.016.186.406.281.875.281 1.408 0 .5-.079.943-.233 1.329a3.865 3.865 0 01-.616 1.032c-.255.304-.55.577-.88.824-.331.245-.672.48-1.024.703-.351.214-.704.423-1.058.633a8.01 8.01 0 00-.965.664 4.451 4.451 0 00-.753.758 2.163 2.163 0 00-.408.938h5.825v1.2h-7.41c.054-.672.174-1.247.36-1.72.187-.475.425-.888.713-1.24s.613-.662.976-.928c.362-.268.741-.518 1.136-.752.48-.299.902-.574 1.264-.826.362-.249.664-.503.904-.758.238-.258.421-.534.544-.832.122-.3.185-.647.185-1.04 0-.31-.06-.59-.177-.842a2.087 2.087 0 00-.472-.648c-.198-.18-.43-.32-.696-.414a2.488 2.488 0 00-.848-.146c-.396 0-.735.084-1.016.25a2.14 2.14 0 00-.696.646c-.182.268-.311.57-.392.906a3.79 3.79 0 00-.104 1.016h-1.36a4.593 4.593 0 01.176-1.602M467.79 596.257c.027.53.113 1.024.257 1.49.144.464.376.854.696 1.175.318.32.766.48 1.344.48.576 0 1.024-.16 1.345-.48.319-.32.55-.711.695-1.175.144-.466.229-.96.256-1.49a30.253 30.253 0 00.032-2.35 7.703 7.703 0 00-.288-1.992c-.091-.322-.224-.6-.402-.84a2.037 2.037 0 00-.664-.586c-.265-.148-.59-.224-.974-.224s-.71.076-.976.224c-.268.15-.49.345-.664.586-.176.24-.31.518-.4.84-.092.32-.16.648-.21.984a8.272 8.272 0 00-.078 1.007c-.006.336-.008.643-.008.92 0 .427.013.904.04 1.431zm-1.447-2.71c.021-.448.074-.886.158-1.312.087-.429.21-.832.37-1.217.16-.383.378-.72.656-1.007.277-.29.626-.52 1.048-.688.421-.172.924-.256 1.512-.256.586 0 1.089.084 1.512.256.421.169.77.399 1.048.688.277.288.496.624.656 1.007.16.385.282.788.368 1.217.085.426.138.864.158 1.312a25.658 25.658 0 010 2.592c-.02.448-.073.885-.158 1.312-.086.426-.208.829-.368 1.208-.16.377-.379.71-.656 1a2.927 2.927 0 01-1.042.68c-.414.164-.921.248-1.518.248-.588 0-1.091-.084-1.512-.248a2.92 2.92 0 01-1.048-.68 3.278 3.278 0 01-.656-1 6.333 6.333 0 01-.37-1.208 8.997 8.997 0 01-.158-1.312 27.32 27.32 0 010-2.592M481.855 595.075a3.015 3.015 0 00-.466-.986 2.276 2.276 0 00-.798-.686c-.326-.171-.708-.258-1.144-.258-.459 0-.848.092-1.17.272a2.33 2.33 0 00-.782.713c-.204.294-.35.627-.442 1-.09.374-.134.753-.134 1.135 0 .407.048.799.142 1.177.098.378.25.711.456 1 .208.288.478.52.811.697.33.176.728.264 1.199.264.468 0 .86-.09 1.176-.273.314-.18.568-.422.76-.72.192-.298.33-.64.416-1.025a5.51 5.51 0 00.128-1.182c0-.386-.052-.76-.152-1.128zm-4.888-2.936v1.118h.032a2.05 2.05 0 011.054-1 3.944 3.944 0 011.586-.312c.638 0 1.196.119 1.672.354.474.235.868.552 1.184.95.314.402.552.863.712 1.386.16.521.24 1.076.24 1.664 0 .586-.078 1.14-.232 1.664-.156.521-.39.977-.706 1.367a3.321 3.321 0 01-1.181.92c-.477.223-1.03.337-1.657.337a4.088 4.088 0 01-1.424-.272 2.88 2.88 0 01-.696-.393 2.171 2.171 0 01-.552-.616h-.032v4.257h-1.362v-11.424h1.362M484.39 592.139h1.745l1.982 2.895 2.064-2.895h1.634l-2.85 3.806 3.2 4.466h-1.744l-2.304-3.424-2.302 3.424h-1.65l3.106-4.354-2.882-3.918M505.59 595.817v1.09h-3.487v3.504h-1.088v-3.505h-3.488v-1.089h3.488v-3.502h1.088v3.502h3.488" fill="#176fc1"/></svg>